M48
;DRILL file {KiCad 4.0.4-stable} date 10/14/18 22:48:48
;FORMAT={3:3/ absolute / metric / suppress leading zeros}
FMAT,2
METRIC,TZ
T1C0.400
T2C0.500
T3C0.550
T4C1.000
%
G90
G05
M71
T1
X119828Y-53340
X120160Y-80665
X123391Y-75804
X125029Y-75849
X125698Y-83058
X127984Y-70358
X131902Y-83315
X133335Y-74691
X135733Y-85131
X137605Y-62641
X139050Y-83332
X149962Y-79461
X150495Y-53416
T4
X118849Y-44986
X118849Y-47526
X151714Y-60579
X151714Y-63119
T2
X132390Y-91591G85X132390Y-90941
G05
X139390Y-91591G85X139390Y-90941
G05
T3
X133240Y-88566G85X133540Y-88566
G05
X138240Y-88566G85X138540Y-88566
G05
T0
M30
