G04 #@! TF.FileFunction,Legend,Top*
%FSLAX46Y46*%
G04 Gerber Fmt 4.6, Leading zero omitted, Abs format (unit mm)*
G04 Created by KiCad (PCBNEW 4.0.4-stable) date 10/14/18 22:48:43*
%MOMM*%
%LPD*%
G01*
G04 APERTURE LIST*
%ADD10C,0.100000*%
%ADD11C,0.150000*%
%ADD12C,0.381000*%
%ADD13C,0.120000*%
%ADD14C,0.304800*%
G04 APERTURE END LIST*
D10*
D11*
X119737143Y-66611238D02*
X119784762Y-66658857D01*
X119832381Y-66801714D01*
X119832381Y-66896952D01*
X119784762Y-67039810D01*
X119689524Y-67135048D01*
X119594286Y-67182667D01*
X119403810Y-67230286D01*
X119260952Y-67230286D01*
X119070476Y-67182667D01*
X118975238Y-67135048D01*
X118880000Y-67039810D01*
X118832381Y-66896952D01*
X118832381Y-66801714D01*
X118880000Y-66658857D01*
X118927619Y-66611238D01*
X119832381Y-65611238D02*
X119356190Y-65944572D01*
X119832381Y-66182667D02*
X118832381Y-66182667D01*
X118832381Y-65801714D01*
X118880000Y-65706476D01*
X118927619Y-65658857D01*
X119022857Y-65611238D01*
X119165714Y-65611238D01*
X119260952Y-65658857D01*
X119308571Y-65706476D01*
X119356190Y-65801714D01*
X119356190Y-66182667D01*
X118927619Y-65230286D02*
X118880000Y-65182667D01*
X118832381Y-65087429D01*
X118832381Y-64849333D01*
X118880000Y-64754095D01*
X118927619Y-64706476D01*
X119022857Y-64658857D01*
X119118095Y-64658857D01*
X119260952Y-64706476D01*
X119832381Y-65277905D01*
X119832381Y-64658857D01*
X119165714Y-63801714D02*
X119832381Y-63801714D01*
X118784762Y-64039810D02*
X119499048Y-64277905D01*
X119499048Y-63658857D01*
X118832381Y-62801714D02*
X118832381Y-63277905D01*
X119308571Y-63325524D01*
X119260952Y-63277905D01*
X119213333Y-63182667D01*
X119213333Y-62944571D01*
X119260952Y-62849333D01*
X119308571Y-62801714D01*
X119403810Y-62754095D01*
X119641905Y-62754095D01*
X119737143Y-62801714D01*
X119784762Y-62849333D01*
X119832381Y-62944571D01*
X119832381Y-63182667D01*
X119784762Y-63277905D01*
X119737143Y-63325524D01*
X118832381Y-62135048D02*
X118832381Y-62039809D01*
X118880000Y-61944571D01*
X118927619Y-61896952D01*
X119022857Y-61849333D01*
X119213333Y-61801714D01*
X119451429Y-61801714D01*
X119641905Y-61849333D01*
X119737143Y-61896952D01*
X119784762Y-61944571D01*
X119832381Y-62039809D01*
X119832381Y-62135048D01*
X119784762Y-62230286D01*
X119737143Y-62277905D01*
X119641905Y-62325524D01*
X119451429Y-62373143D01*
X119213333Y-62373143D01*
X119022857Y-62325524D01*
X118927619Y-62277905D01*
X118880000Y-62230286D01*
X118832381Y-62135048D01*
X117942621Y-71236647D02*
X117942621Y-71712838D01*
X116942621Y-71712838D01*
X117942621Y-70903314D02*
X116942621Y-70903314D01*
X117942621Y-70427124D02*
X116942621Y-70427124D01*
X116942621Y-70046171D01*
X116990240Y-69950933D01*
X117037859Y-69903314D01*
X117133097Y-69855695D01*
X117275954Y-69855695D01*
X117371192Y-69903314D01*
X117418811Y-69950933D01*
X117466430Y-70046171D01*
X117466430Y-70427124D01*
X116942621Y-69236648D02*
X116942621Y-69046171D01*
X116990240Y-68950933D01*
X117085478Y-68855695D01*
X117275954Y-68808076D01*
X117609288Y-68808076D01*
X117799764Y-68855695D01*
X117895002Y-68950933D01*
X117942621Y-69046171D01*
X117942621Y-69236648D01*
X117895002Y-69331886D01*
X117799764Y-69427124D01*
X117609288Y-69474743D01*
X117275954Y-69474743D01*
X117085478Y-69427124D01*
X116990240Y-69331886D01*
X116942621Y-69236648D01*
X116942621Y-67617600D02*
X117752145Y-67617600D01*
X117847383Y-67569981D01*
X117895002Y-67522362D01*
X117942621Y-67427124D01*
X117942621Y-67236647D01*
X117895002Y-67141409D01*
X117847383Y-67093790D01*
X117752145Y-67046171D01*
X116942621Y-67046171D01*
X117895002Y-66617600D02*
X117942621Y-66474743D01*
X117942621Y-66236647D01*
X117895002Y-66141409D01*
X117847383Y-66093790D01*
X117752145Y-66046171D01*
X117656907Y-66046171D01*
X117561669Y-66093790D01*
X117514050Y-66141409D01*
X117466430Y-66236647D01*
X117418811Y-66427124D01*
X117371192Y-66522362D01*
X117323573Y-66569981D01*
X117228335Y-66617600D01*
X117133097Y-66617600D01*
X117037859Y-66569981D01*
X116990240Y-66522362D01*
X116942621Y-66427124D01*
X116942621Y-66189028D01*
X116990240Y-66046171D01*
X117418811Y-65284266D02*
X117466430Y-65141409D01*
X117514050Y-65093790D01*
X117609288Y-65046171D01*
X117752145Y-65046171D01*
X117847383Y-65093790D01*
X117895002Y-65141409D01*
X117942621Y-65236647D01*
X117942621Y-65617600D01*
X116942621Y-65617600D01*
X116942621Y-65284266D01*
X116990240Y-65189028D01*
X117037859Y-65141409D01*
X117133097Y-65093790D01*
X117228335Y-65093790D01*
X117323573Y-65141409D01*
X117371192Y-65189028D01*
X117418811Y-65284266D01*
X117418811Y-65617600D01*
X117847383Y-63284266D02*
X117895002Y-63331885D01*
X117942621Y-63474742D01*
X117942621Y-63569980D01*
X117895002Y-63712838D01*
X117799764Y-63808076D01*
X117704526Y-63855695D01*
X117514050Y-63903314D01*
X117371192Y-63903314D01*
X117180716Y-63855695D01*
X117085478Y-63808076D01*
X116990240Y-63712838D01*
X116942621Y-63569980D01*
X116942621Y-63474742D01*
X116990240Y-63331885D01*
X117037859Y-63284266D01*
X117942621Y-62855695D02*
X116942621Y-62855695D01*
X117418811Y-62855695D02*
X117418811Y-62284266D01*
X117942621Y-62284266D02*
X116942621Y-62284266D01*
X117656907Y-61855695D02*
X117656907Y-61379504D01*
X117942621Y-61950933D02*
X116942621Y-61617600D01*
X117942621Y-61284266D01*
X117942621Y-60379504D02*
X117466430Y-60712838D01*
X117942621Y-60950933D02*
X116942621Y-60950933D01*
X116942621Y-60569980D01*
X116990240Y-60474742D01*
X117037859Y-60427123D01*
X117133097Y-60379504D01*
X117275954Y-60379504D01*
X117371192Y-60427123D01*
X117418811Y-60474742D01*
X117466430Y-60569980D01*
X117466430Y-60950933D01*
X116990240Y-59427123D02*
X116942621Y-59522361D01*
X116942621Y-59665218D01*
X116990240Y-59808076D01*
X117085478Y-59903314D01*
X117180716Y-59950933D01*
X117371192Y-59998552D01*
X117514050Y-59998552D01*
X117704526Y-59950933D01*
X117799764Y-59903314D01*
X117895002Y-59808076D01*
X117942621Y-59665218D01*
X117942621Y-59569980D01*
X117895002Y-59427123D01*
X117847383Y-59379504D01*
X117514050Y-59379504D01*
X117514050Y-59569980D01*
X117418811Y-58950933D02*
X117418811Y-58617599D01*
X117942621Y-58474742D02*
X117942621Y-58950933D01*
X116942621Y-58950933D01*
X116942621Y-58474742D01*
X117942621Y-57474742D02*
X117466430Y-57808076D01*
X117942621Y-58046171D02*
X116942621Y-58046171D01*
X116942621Y-57665218D01*
X116990240Y-57569980D01*
X117037859Y-57522361D01*
X117133097Y-57474742D01*
X117275954Y-57474742D01*
X117371192Y-57522361D01*
X117418811Y-57569980D01*
X117466430Y-57665218D01*
X117466430Y-58046171D01*
D12*
X135128000Y-47244000D02*
X132969000Y-47117000D01*
X132969000Y-47117000D02*
X131191000Y-46736000D01*
X131191000Y-46736000D02*
X129413000Y-46101000D01*
X129413000Y-46101000D02*
X128016000Y-45466000D01*
X128016000Y-45466000D02*
X126619000Y-44577000D01*
X126619000Y-44577000D02*
X125476000Y-43688000D01*
X125476000Y-43688000D02*
X124968000Y-43561000D01*
X145288000Y-43561000D02*
X144780000Y-43688000D01*
X144780000Y-43688000D02*
X143637000Y-44577000D01*
X143637000Y-44577000D02*
X142240000Y-45466000D01*
X142240000Y-45466000D02*
X140843000Y-46101000D01*
X140843000Y-46101000D02*
X139065000Y-46736000D01*
X139065000Y-46736000D02*
X137287000Y-47117000D01*
X137287000Y-47117000D02*
X135128000Y-47244000D01*
X124968000Y-43561000D02*
G75*
G03X122428000Y-46101000I0J-2540000D01*
G01*
X147828000Y-46101000D02*
G75*
G03X145288000Y-43561000I-2540000J0D01*
G01*
X127431800Y-65405000D02*
X122428000Y-60274200D01*
X122428000Y-60274200D02*
X122428000Y-46126400D01*
X142824200Y-65405000D02*
X147828000Y-60274200D01*
X147828000Y-60274200D02*
X147828000Y-46126400D01*
X142824200Y-66217800D02*
X142824200Y-65405000D01*
X127431800Y-66217800D02*
X127431800Y-65405000D01*
X142824200Y-66217800D02*
X127431800Y-66217800D01*
D13*
X136636000Y-78482000D02*
X134636000Y-78482000D01*
X134636000Y-80522000D02*
X136636000Y-80522000D01*
X136382000Y-69338000D02*
X134382000Y-69338000D01*
X134382000Y-71378000D02*
X136382000Y-71378000D01*
X124698000Y-82038000D02*
X122698000Y-82038000D01*
X122698000Y-84078000D02*
X124698000Y-84078000D01*
X138482000Y-75626000D02*
X138482000Y-73726000D01*
X138482000Y-73726000D02*
X133782000Y-73726000D01*
X138482000Y-75626000D02*
X133782000Y-75626000D01*
X120666000Y-79720000D02*
X122666000Y-79720000D01*
X122666000Y-79720000D02*
X122666000Y-75820000D01*
X120666000Y-79720000D02*
X120666000Y-75820000D01*
D11*
X140240000Y-87566000D02*
X140240000Y-86866000D01*
X140240000Y-86866000D02*
X131540000Y-86866000D01*
X131540000Y-86866000D02*
X131540000Y-87566000D01*
D13*
X131540000Y-93946000D02*
X140240000Y-93946000D01*
X140240000Y-87536000D02*
X140240000Y-93946000D01*
X140240000Y-92716000D02*
X131540000Y-92716000D01*
X131540000Y-93946000D02*
X131540000Y-87536000D01*
X129030000Y-78542000D02*
X129030000Y-77612000D01*
X129030000Y-75382000D02*
X129030000Y-76312000D01*
X129030000Y-75382000D02*
X125870000Y-75382000D01*
X129030000Y-78542000D02*
X127570000Y-78542000D01*
X126984000Y-71428000D02*
X124984000Y-71428000D01*
X124984000Y-69288000D02*
X126984000Y-69288000D01*
X145526000Y-71428000D02*
X143526000Y-71428000D01*
X143526000Y-69288000D02*
X145526000Y-69288000D01*
X151184000Y-76216000D02*
X151184000Y-78216000D01*
X149044000Y-78216000D02*
X149044000Y-76216000D01*
X142610000Y-78572000D02*
X144410000Y-78572000D01*
X144410000Y-75352000D02*
X141960000Y-75352000D01*
X150384200Y-61849000D02*
X150384200Y-64449000D01*
X150384200Y-64449000D02*
X153044200Y-64449000D01*
X153044200Y-64449000D02*
X153044200Y-61849000D01*
X153044200Y-61849000D02*
X150384200Y-61849000D01*
X150384200Y-60579000D02*
X150384200Y-59249000D01*
X150384200Y-59249000D02*
X151714200Y-59249000D01*
X120179140Y-46255940D02*
X120179140Y-43655940D01*
X120179140Y-43655940D02*
X117519140Y-43655940D01*
X117519140Y-43655940D02*
X117519140Y-46255940D01*
X117519140Y-46255940D02*
X120179140Y-46255940D01*
X120179140Y-47525940D02*
X120179140Y-48855940D01*
X120179140Y-48855940D02*
X118849140Y-48855940D01*
D14*
X133676571Y-64407143D02*
X133894285Y-64479714D01*
X133966857Y-64552286D01*
X134039428Y-64697429D01*
X134039428Y-64915143D01*
X133966857Y-65060286D01*
X133894285Y-65132857D01*
X133749143Y-65205429D01*
X133168571Y-65205429D01*
X133168571Y-63681429D01*
X133676571Y-63681429D01*
X133821714Y-63754000D01*
X133894285Y-63826571D01*
X133966857Y-63971714D01*
X133966857Y-64116857D01*
X133894285Y-64262000D01*
X133821714Y-64334571D01*
X133676571Y-64407143D01*
X133168571Y-64407143D01*
X134474857Y-63681429D02*
X135345714Y-63681429D01*
X134910285Y-65205429D02*
X134910285Y-63681429D01*
X136652000Y-65205429D02*
X135781143Y-65205429D01*
X136216571Y-65205429D02*
X136216571Y-63681429D01*
X136071428Y-63899143D01*
X135926286Y-64044286D01*
X135781143Y-64116857D01*
X131971143Y-42431143D02*
X132188857Y-42503714D01*
X132261429Y-42576286D01*
X132334000Y-42721429D01*
X132334000Y-42939143D01*
X132261429Y-43084286D01*
X132188857Y-43156857D01*
X132043715Y-43229429D01*
X131463143Y-43229429D01*
X131463143Y-41705429D01*
X131971143Y-41705429D01*
X132116286Y-41778000D01*
X132188857Y-41850571D01*
X132261429Y-41995714D01*
X132261429Y-42140857D01*
X132188857Y-42286000D01*
X132116286Y-42358571D01*
X131971143Y-42431143D01*
X131463143Y-42431143D01*
X133640286Y-43229429D02*
X133640286Y-42431143D01*
X133567715Y-42286000D01*
X133422572Y-42213429D01*
X133132286Y-42213429D01*
X132987143Y-42286000D01*
X133640286Y-43156857D02*
X133495143Y-43229429D01*
X133132286Y-43229429D01*
X132987143Y-43156857D01*
X132914572Y-43011714D01*
X132914572Y-42866571D01*
X132987143Y-42721429D01*
X133132286Y-42648857D01*
X133495143Y-42648857D01*
X133640286Y-42576286D01*
X134148286Y-42213429D02*
X134728857Y-42213429D01*
X134366000Y-41705429D02*
X134366000Y-43011714D01*
X134438572Y-43156857D01*
X134583714Y-43229429D01*
X134728857Y-43229429D01*
X135019143Y-42213429D02*
X135599714Y-42213429D01*
X135236857Y-41705429D02*
X135236857Y-43011714D01*
X135309429Y-43156857D01*
X135454571Y-43229429D01*
X135599714Y-43229429D01*
X136688286Y-43156857D02*
X136543143Y-43229429D01*
X136252857Y-43229429D01*
X136107714Y-43156857D01*
X136035143Y-43011714D01*
X136035143Y-42431143D01*
X136107714Y-42286000D01*
X136252857Y-42213429D01*
X136543143Y-42213429D01*
X136688286Y-42286000D01*
X136760857Y-42431143D01*
X136760857Y-42576286D01*
X136035143Y-42721429D01*
X137414000Y-43229429D02*
X137414000Y-42213429D01*
X137414000Y-42503714D02*
X137486572Y-42358571D01*
X137559143Y-42286000D01*
X137704286Y-42213429D01*
X137849429Y-42213429D01*
X138212286Y-42213429D02*
X138575143Y-43229429D01*
X138938001Y-42213429D02*
X138575143Y-43229429D01*
X138430001Y-43592286D01*
X138357429Y-43664857D01*
X138212286Y-43737429D01*
D11*
X139647048Y-56911429D02*
X140408953Y-56911429D01*
X123347048Y-60011429D02*
X124108953Y-60011429D01*
X123728001Y-60392381D02*
X123728001Y-59630476D01*
X132994667Y-60892381D02*
X132518476Y-60892381D01*
X132518476Y-59892381D01*
X133328000Y-60892381D02*
X133328000Y-59892381D01*
X134375619Y-60892381D02*
X134042285Y-60416190D01*
X133804190Y-60892381D02*
X133804190Y-59892381D01*
X134185143Y-59892381D01*
X134280381Y-59940000D01*
X134328000Y-59987619D01*
X134375619Y-60082857D01*
X134375619Y-60225714D01*
X134328000Y-60320952D01*
X134280381Y-60368571D01*
X134185143Y-60416190D01*
X133804190Y-60416190D01*
X134756571Y-59987619D02*
X134804190Y-59940000D01*
X134899428Y-59892381D01*
X135137524Y-59892381D01*
X135232762Y-59940000D01*
X135280381Y-59987619D01*
X135328000Y-60082857D01*
X135328000Y-60178095D01*
X135280381Y-60320952D01*
X134708952Y-60892381D01*
X135328000Y-60892381D01*
X136185143Y-60225714D02*
X136185143Y-60892381D01*
X135947047Y-59844762D02*
X135708952Y-60559048D01*
X136328000Y-60559048D01*
X137185143Y-59892381D02*
X136708952Y-59892381D01*
X136661333Y-60368571D01*
X136708952Y-60320952D01*
X136804190Y-60273333D01*
X137042286Y-60273333D01*
X137137524Y-60320952D01*
X137185143Y-60368571D01*
X137232762Y-60463810D01*
X137232762Y-60701905D01*
X137185143Y-60797143D01*
X137137524Y-60844762D01*
X137042286Y-60892381D01*
X136804190Y-60892381D01*
X136708952Y-60844762D01*
X136661333Y-60797143D01*
X137851809Y-59892381D02*
X137947048Y-59892381D01*
X138042286Y-59940000D01*
X138089905Y-59987619D01*
X138137524Y-60082857D01*
X138185143Y-60273333D01*
X138185143Y-60511429D01*
X138137524Y-60701905D01*
X138089905Y-60797143D01*
X138042286Y-60844762D01*
X137947048Y-60892381D01*
X137851809Y-60892381D01*
X137756571Y-60844762D01*
X137708952Y-60797143D01*
X137661333Y-60701905D01*
X137613714Y-60511429D01*
X137613714Y-60273333D01*
X137661333Y-60082857D01*
X137708952Y-59987619D01*
X137756571Y-59940000D01*
X137851809Y-59892381D01*
X132177494Y-81723503D02*
X132129875Y-81771122D01*
X131987018Y-81818741D01*
X131891780Y-81818741D01*
X131748922Y-81771122D01*
X131653684Y-81675884D01*
X131606065Y-81580646D01*
X131558446Y-81390170D01*
X131558446Y-81247312D01*
X131606065Y-81056836D01*
X131653684Y-80961598D01*
X131748922Y-80866360D01*
X131891780Y-80818741D01*
X131987018Y-80818741D01*
X132129875Y-80866360D01*
X132177494Y-80913979D01*
X133129875Y-81818741D02*
X132558446Y-81818741D01*
X132844160Y-81818741D02*
X132844160Y-80818741D01*
X132748922Y-80961598D01*
X132653684Y-81056836D01*
X132558446Y-81104455D01*
X134582429Y-81341286D02*
X134582429Y-81841286D01*
X134403858Y-81055571D02*
X134225286Y-81591286D01*
X134689572Y-81591286D01*
X134975286Y-81769857D02*
X135011001Y-81805571D01*
X134975286Y-81841286D01*
X134939572Y-81805571D01*
X134975286Y-81769857D01*
X134975286Y-81841286D01*
X135261001Y-81091286D02*
X135761001Y-81091286D01*
X135439572Y-81841286D01*
X136368144Y-81341286D02*
X136368144Y-81841286D01*
X136046715Y-81341286D02*
X136046715Y-81734143D01*
X136082430Y-81805571D01*
X136153858Y-81841286D01*
X136261001Y-81841286D01*
X136332430Y-81805571D01*
X136368144Y-81769857D01*
X136975286Y-81448429D02*
X136725286Y-81448429D01*
X136725286Y-81841286D02*
X136725286Y-81091286D01*
X137082429Y-81091286D01*
X137501334Y-68937143D02*
X137453715Y-68984762D01*
X137310858Y-69032381D01*
X137215620Y-69032381D01*
X137072762Y-68984762D01*
X136977524Y-68889524D01*
X136929905Y-68794286D01*
X136882286Y-68603810D01*
X136882286Y-68460952D01*
X136929905Y-68270476D01*
X136977524Y-68175238D01*
X137072762Y-68080000D01*
X137215620Y-68032381D01*
X137310858Y-68032381D01*
X137453715Y-68080000D01*
X137501334Y-68127619D01*
X137882286Y-68127619D02*
X137929905Y-68080000D01*
X138025143Y-68032381D01*
X138263239Y-68032381D01*
X138358477Y-68080000D01*
X138406096Y-68127619D01*
X138453715Y-68222857D01*
X138453715Y-68318095D01*
X138406096Y-68460952D01*
X137834667Y-69032381D01*
X138453715Y-69032381D01*
X132042429Y-68419286D02*
X132042429Y-68919286D01*
X131863858Y-68133571D02*
X131685286Y-68669286D01*
X132149572Y-68669286D01*
X132435286Y-68847857D02*
X132471001Y-68883571D01*
X132435286Y-68919286D01*
X132399572Y-68883571D01*
X132435286Y-68847857D01*
X132435286Y-68919286D01*
X132721001Y-68169286D02*
X133221001Y-68169286D01*
X132899572Y-68919286D01*
X133828144Y-68419286D02*
X133828144Y-68919286D01*
X133506715Y-68419286D02*
X133506715Y-68812143D01*
X133542430Y-68883571D01*
X133613858Y-68919286D01*
X133721001Y-68919286D01*
X133792430Y-68883571D01*
X133828144Y-68847857D01*
X134435286Y-68526429D02*
X134185286Y-68526429D01*
X134185286Y-68919286D02*
X134185286Y-68169286D01*
X134542429Y-68169286D01*
X123531334Y-81665143D02*
X123483715Y-81712762D01*
X123340858Y-81760381D01*
X123245620Y-81760381D01*
X123102762Y-81712762D01*
X123007524Y-81617524D01*
X122959905Y-81522286D01*
X122912286Y-81331810D01*
X122912286Y-81188952D01*
X122959905Y-80998476D01*
X123007524Y-80903238D01*
X123102762Y-80808000D01*
X123245620Y-80760381D01*
X123340858Y-80760381D01*
X123483715Y-80808000D01*
X123531334Y-80855619D01*
X123864667Y-80760381D02*
X124483715Y-80760381D01*
X124150381Y-81141333D01*
X124293239Y-81141333D01*
X124388477Y-81188952D01*
X124436096Y-81236571D01*
X124483715Y-81331810D01*
X124483715Y-81569905D01*
X124436096Y-81665143D01*
X124388477Y-81712762D01*
X124293239Y-81760381D01*
X124007524Y-81760381D01*
X123912286Y-81712762D01*
X123864667Y-81665143D01*
X123251572Y-85397286D02*
X122823000Y-85397286D01*
X123037286Y-85397286D02*
X123037286Y-84647286D01*
X122965857Y-84754429D01*
X122894429Y-84825857D01*
X122823000Y-84861571D01*
X123894429Y-84897286D02*
X123894429Y-85397286D01*
X123573000Y-84897286D02*
X123573000Y-85290143D01*
X123608715Y-85361571D01*
X123680143Y-85397286D01*
X123787286Y-85397286D01*
X123858715Y-85361571D01*
X123894429Y-85325857D01*
X124501571Y-85004429D02*
X124251571Y-85004429D01*
X124251571Y-85397286D02*
X124251571Y-84647286D01*
X124608714Y-84647286D01*
X134643905Y-76978381D02*
X134643905Y-75978381D01*
X134882000Y-75978381D01*
X135024858Y-76026000D01*
X135120096Y-76121238D01*
X135167715Y-76216476D01*
X135215334Y-76406952D01*
X135215334Y-76549810D01*
X135167715Y-76740286D01*
X135120096Y-76835524D01*
X135024858Y-76930762D01*
X134882000Y-76978381D01*
X134643905Y-76978381D01*
X136167715Y-76978381D02*
X135596286Y-76978381D01*
X135882000Y-76978381D02*
X135882000Y-75978381D01*
X135786762Y-76121238D01*
X135691524Y-76216476D01*
X135596286Y-76264095D01*
X134111063Y-72955346D02*
X133753920Y-72955346D01*
X133753920Y-72205346D01*
X134789635Y-72883917D02*
X134753921Y-72919631D01*
X134646778Y-72955346D01*
X134575349Y-72955346D01*
X134468206Y-72919631D01*
X134396778Y-72848203D01*
X134361063Y-72776774D01*
X134325349Y-72633917D01*
X134325349Y-72526774D01*
X134361063Y-72383917D01*
X134396778Y-72312489D01*
X134468206Y-72241060D01*
X134575349Y-72205346D01*
X134646778Y-72205346D01*
X134753921Y-72241060D01*
X134789635Y-72276774D01*
X135111063Y-72955346D02*
X135111063Y-72205346D01*
X135432492Y-72955346D02*
X135432492Y-72562489D01*
X135396778Y-72491060D01*
X135325349Y-72455346D01*
X135218206Y-72455346D01*
X135146778Y-72491060D01*
X135111063Y-72526774D01*
X136111063Y-72955346D02*
X136111063Y-72562489D01*
X136075349Y-72491060D01*
X136003920Y-72455346D01*
X135861063Y-72455346D01*
X135789634Y-72491060D01*
X136111063Y-72919631D02*
X136039634Y-72955346D01*
X135861063Y-72955346D01*
X135789634Y-72919631D01*
X135753920Y-72848203D01*
X135753920Y-72776774D01*
X135789634Y-72705346D01*
X135861063Y-72669631D01*
X136039634Y-72669631D01*
X136111063Y-72633917D01*
X136468205Y-72955346D02*
X136468205Y-72455346D01*
X136468205Y-72598203D02*
X136503920Y-72526774D01*
X136539634Y-72491060D01*
X136611063Y-72455346D01*
X136682491Y-72455346D01*
X137253920Y-72455346D02*
X137253920Y-73062489D01*
X137218206Y-73133917D01*
X137182491Y-73169631D01*
X137111063Y-73205346D01*
X137003920Y-73205346D01*
X136932491Y-73169631D01*
X137253920Y-72919631D02*
X137182491Y-72955346D01*
X137039634Y-72955346D01*
X136968206Y-72919631D01*
X136932491Y-72883917D01*
X136896777Y-72812489D01*
X136896777Y-72598203D01*
X136932491Y-72526774D01*
X136968206Y-72491060D01*
X137039634Y-72455346D01*
X137182491Y-72455346D01*
X137253920Y-72491060D01*
X120118381Y-78208095D02*
X119118381Y-78208095D01*
X119118381Y-77970000D01*
X119166000Y-77827142D01*
X119261238Y-77731904D01*
X119356476Y-77684285D01*
X119546952Y-77636666D01*
X119689810Y-77636666D01*
X119880286Y-77684285D01*
X119975524Y-77731904D01*
X120070762Y-77827142D01*
X120118381Y-77970000D01*
X120118381Y-78208095D01*
X119213619Y-77255714D02*
X119166000Y-77208095D01*
X119118381Y-77112857D01*
X119118381Y-76874761D01*
X119166000Y-76779523D01*
X119213619Y-76731904D01*
X119308857Y-76684285D01*
X119404095Y-76684285D01*
X119546952Y-76731904D01*
X120118381Y-77303333D01*
X120118381Y-76684285D01*
X118310429Y-79541429D02*
X118346143Y-79434286D01*
X118381857Y-79398571D01*
X118453286Y-79362857D01*
X118560429Y-79362857D01*
X118631857Y-79398571D01*
X118667571Y-79434286D01*
X118703286Y-79505714D01*
X118703286Y-79791429D01*
X117953286Y-79791429D01*
X117953286Y-79541429D01*
X117989000Y-79470000D01*
X118024714Y-79434286D01*
X118096143Y-79398571D01*
X118167571Y-79398571D01*
X118239000Y-79434286D01*
X118274714Y-79470000D01*
X118310429Y-79541429D01*
X118310429Y-79791429D01*
X118703286Y-78648571D02*
X118703286Y-79077143D01*
X118703286Y-78862857D02*
X117953286Y-78862857D01*
X118060429Y-78934286D01*
X118131857Y-79005714D01*
X118167571Y-79077143D01*
X117953286Y-78398571D02*
X117953286Y-77934285D01*
X118239000Y-78184285D01*
X118239000Y-78077143D01*
X118274714Y-78005714D01*
X118310429Y-77970000D01*
X118381857Y-77934285D01*
X118560429Y-77934285D01*
X118631857Y-77970000D01*
X118667571Y-78005714D01*
X118703286Y-78077143D01*
X118703286Y-78291428D01*
X118667571Y-78362857D01*
X118631857Y-78398571D01*
X117953286Y-77469999D02*
X117953286Y-77398571D01*
X117989000Y-77327142D01*
X118024714Y-77291428D01*
X118096143Y-77255714D01*
X118239000Y-77219999D01*
X118417571Y-77219999D01*
X118560429Y-77255714D01*
X118631857Y-77291428D01*
X118667571Y-77327142D01*
X118703286Y-77398571D01*
X118703286Y-77469999D01*
X118667571Y-77541428D01*
X118631857Y-77577142D01*
X118560429Y-77612857D01*
X118417571Y-77648571D01*
X118239000Y-77648571D01*
X118096143Y-77612857D01*
X118024714Y-77577142D01*
X117989000Y-77541428D01*
X117953286Y-77469999D01*
X118703286Y-76541428D02*
X118703286Y-76898571D01*
X117953286Y-76898571D01*
X118489000Y-76327142D02*
X118489000Y-75969999D01*
X118703286Y-76398570D02*
X117953286Y-76148570D01*
X118703286Y-75898570D01*
X117953286Y-75719999D02*
X118703286Y-75541428D01*
X118167571Y-75398571D01*
X118703286Y-75255713D01*
X117953286Y-75077142D01*
X135351905Y-84168381D02*
X135351905Y-83168381D01*
X135732858Y-83168381D01*
X135828096Y-83216000D01*
X135875715Y-83263619D01*
X135923334Y-83358857D01*
X135923334Y-83501714D01*
X135875715Y-83596952D01*
X135828096Y-83644571D01*
X135732858Y-83692190D01*
X135351905Y-83692190D01*
X136875715Y-84168381D02*
X136304286Y-84168381D01*
X136590000Y-84168381D02*
X136590000Y-83168381D01*
X136494762Y-83311238D01*
X136399524Y-83406476D01*
X136304286Y-83454095D01*
X128174762Y-75009619D02*
X128079524Y-74962000D01*
X127984286Y-74866762D01*
X127841429Y-74723905D01*
X127746190Y-74676286D01*
X127650952Y-74676286D01*
X127698571Y-74914381D02*
X127603333Y-74866762D01*
X127508095Y-74771524D01*
X127460476Y-74581048D01*
X127460476Y-74247714D01*
X127508095Y-74057238D01*
X127603333Y-73962000D01*
X127698571Y-73914381D01*
X127889048Y-73914381D01*
X127984286Y-73962000D01*
X128079524Y-74057238D01*
X128127143Y-74247714D01*
X128127143Y-74581048D01*
X128079524Y-74771524D01*
X127984286Y-74866762D01*
X127889048Y-74914381D01*
X127698571Y-74914381D01*
X129079524Y-74914381D02*
X128508095Y-74914381D01*
X128793809Y-74914381D02*
X128793809Y-73914381D01*
X128698571Y-74057238D01*
X128603333Y-74152476D01*
X128508095Y-74200095D01*
X125448571Y-79801286D02*
X125448571Y-79051286D01*
X125627143Y-79051286D01*
X125734286Y-79087000D01*
X125805714Y-79158429D01*
X125841429Y-79229857D01*
X125877143Y-79372714D01*
X125877143Y-79479857D01*
X125841429Y-79622714D01*
X125805714Y-79694143D01*
X125734286Y-79765571D01*
X125627143Y-79801286D01*
X125448571Y-79801286D01*
X126198571Y-79801286D02*
X126198571Y-79051286D01*
X126448571Y-79587000D01*
X126698571Y-79051286D01*
X126698571Y-79801286D01*
X127055714Y-79801286D02*
X127055714Y-79051286D01*
X127341429Y-79051286D01*
X127412857Y-79087000D01*
X127448572Y-79122714D01*
X127484286Y-79194143D01*
X127484286Y-79301286D01*
X127448572Y-79372714D01*
X127412857Y-79408429D01*
X127341429Y-79444143D01*
X127055714Y-79444143D01*
X128198572Y-79801286D02*
X127770000Y-79801286D01*
X127984286Y-79801286D02*
X127984286Y-79051286D01*
X127912857Y-79158429D01*
X127841429Y-79229857D01*
X127770000Y-79265571D01*
X128662858Y-79051286D02*
X128734286Y-79051286D01*
X128805715Y-79087000D01*
X128841429Y-79122714D01*
X128877143Y-79194143D01*
X128912858Y-79337000D01*
X128912858Y-79515571D01*
X128877143Y-79658429D01*
X128841429Y-79729857D01*
X128805715Y-79765571D01*
X128734286Y-79801286D01*
X128662858Y-79801286D01*
X128591429Y-79765571D01*
X128555715Y-79729857D01*
X128520000Y-79658429D01*
X128484286Y-79515571D01*
X128484286Y-79337000D01*
X128520000Y-79194143D01*
X128555715Y-79122714D01*
X128591429Y-79087000D01*
X128662858Y-79051286D01*
X129555715Y-79301286D02*
X129555715Y-79801286D01*
X129377144Y-79015571D02*
X129198572Y-79551286D01*
X129662858Y-79551286D01*
X130305715Y-79051286D02*
X129948572Y-79051286D01*
X129912858Y-79408429D01*
X129948572Y-79372714D01*
X130020001Y-79337000D01*
X130198572Y-79337000D01*
X130270001Y-79372714D01*
X130305715Y-79408429D01*
X130341430Y-79479857D01*
X130341430Y-79658429D01*
X130305715Y-79729857D01*
X130270001Y-79765571D01*
X130198572Y-79801286D01*
X130020001Y-79801286D01*
X129948572Y-79765571D01*
X129912858Y-79729857D01*
X130662858Y-79051286D02*
X130662858Y-79658429D01*
X130698573Y-79729857D01*
X130734287Y-79765571D01*
X130805716Y-79801286D01*
X130948573Y-79801286D01*
X131020001Y-79765571D01*
X131055716Y-79729857D01*
X131091430Y-79658429D01*
X131091430Y-79051286D01*
X125817334Y-68960381D02*
X125484000Y-68484190D01*
X125245905Y-68960381D02*
X125245905Y-67960381D01*
X125626858Y-67960381D01*
X125722096Y-68008000D01*
X125769715Y-68055619D01*
X125817334Y-68150857D01*
X125817334Y-68293714D01*
X125769715Y-68388952D01*
X125722096Y-68436571D01*
X125626858Y-68484190D01*
X125245905Y-68484190D01*
X126769715Y-68960381D02*
X126198286Y-68960381D01*
X126484000Y-68960381D02*
X126484000Y-67960381D01*
X126388762Y-68103238D01*
X126293524Y-68198476D01*
X126198286Y-68246095D01*
X125412571Y-72097286D02*
X125412571Y-72597286D01*
X125234000Y-71811571D02*
X125055428Y-72347286D01*
X125519714Y-72347286D01*
X125734000Y-71847286D02*
X126234000Y-71847286D01*
X125912571Y-72597286D01*
X126662572Y-71847286D02*
X126734000Y-71847286D01*
X126805429Y-71883000D01*
X126841143Y-71918714D01*
X126876857Y-71990143D01*
X126912572Y-72133000D01*
X126912572Y-72311571D01*
X126876857Y-72454429D01*
X126841143Y-72525857D01*
X126805429Y-72561571D01*
X126734000Y-72597286D01*
X126662572Y-72597286D01*
X126591143Y-72561571D01*
X126555429Y-72525857D01*
X126519714Y-72454429D01*
X126484000Y-72311571D01*
X126484000Y-72133000D01*
X126519714Y-71990143D01*
X126555429Y-71918714D01*
X126591143Y-71883000D01*
X126662572Y-71847286D01*
X144359334Y-68960381D02*
X144026000Y-68484190D01*
X143787905Y-68960381D02*
X143787905Y-67960381D01*
X144168858Y-67960381D01*
X144264096Y-68008000D01*
X144311715Y-68055619D01*
X144359334Y-68150857D01*
X144359334Y-68293714D01*
X144311715Y-68388952D01*
X144264096Y-68436571D01*
X144168858Y-68484190D01*
X143787905Y-68484190D01*
X144740286Y-68055619D02*
X144787905Y-68008000D01*
X144883143Y-67960381D01*
X145121239Y-67960381D01*
X145216477Y-68008000D01*
X145264096Y-68055619D01*
X145311715Y-68150857D01*
X145311715Y-68246095D01*
X145264096Y-68388952D01*
X144692667Y-68960381D01*
X145311715Y-68960381D01*
X144079572Y-72597286D02*
X143651000Y-72597286D01*
X143865286Y-72597286D02*
X143865286Y-71847286D01*
X143793857Y-71954429D01*
X143722429Y-72025857D01*
X143651000Y-72061571D01*
X144543858Y-71847286D02*
X144615286Y-71847286D01*
X144686715Y-71883000D01*
X144722429Y-71918714D01*
X144758143Y-71990143D01*
X144793858Y-72133000D01*
X144793858Y-72311571D01*
X144758143Y-72454429D01*
X144722429Y-72525857D01*
X144686715Y-72561571D01*
X144615286Y-72597286D01*
X144543858Y-72597286D01*
X144472429Y-72561571D01*
X144436715Y-72525857D01*
X144401000Y-72454429D01*
X144365286Y-72311571D01*
X144365286Y-72133000D01*
X144401000Y-71990143D01*
X144436715Y-71918714D01*
X144472429Y-71883000D01*
X144543858Y-71847286D01*
X145115286Y-72597286D02*
X145115286Y-71847286D01*
X145186715Y-72311571D02*
X145401001Y-72597286D01*
X145401001Y-72097286D02*
X145115286Y-72383000D01*
X148716381Y-77382666D02*
X148240190Y-77716000D01*
X148716381Y-77954095D02*
X147716381Y-77954095D01*
X147716381Y-77573142D01*
X147764000Y-77477904D01*
X147811619Y-77430285D01*
X147906857Y-77382666D01*
X148049714Y-77382666D01*
X148144952Y-77430285D01*
X148192571Y-77477904D01*
X148240190Y-77573142D01*
X148240190Y-77954095D01*
X147716381Y-77049333D02*
X147716381Y-76430285D01*
X148097333Y-76763619D01*
X148097333Y-76620761D01*
X148144952Y-76525523D01*
X148192571Y-76477904D01*
X148287810Y-76430285D01*
X148525905Y-76430285D01*
X148621143Y-76477904D01*
X148668762Y-76525523D01*
X148716381Y-76620761D01*
X148716381Y-76906476D01*
X148668762Y-77001714D01*
X148621143Y-77049333D01*
X152353286Y-78019571D02*
X152353286Y-78448143D01*
X152353286Y-78233857D02*
X151603286Y-78233857D01*
X151710429Y-78305286D01*
X151781857Y-78376714D01*
X151817571Y-78448143D01*
X151603286Y-77555285D02*
X151603286Y-77483857D01*
X151639000Y-77412428D01*
X151674714Y-77376714D01*
X151746143Y-77341000D01*
X151889000Y-77305285D01*
X152067571Y-77305285D01*
X152210429Y-77341000D01*
X152281857Y-77376714D01*
X152317571Y-77412428D01*
X152353286Y-77483857D01*
X152353286Y-77555285D01*
X152317571Y-77626714D01*
X152281857Y-77662428D01*
X152210429Y-77698143D01*
X152067571Y-77733857D01*
X151889000Y-77733857D01*
X151746143Y-77698143D01*
X151674714Y-77662428D01*
X151639000Y-77626714D01*
X151603286Y-77555285D01*
X151603286Y-76840999D02*
X151603286Y-76769571D01*
X151639000Y-76698142D01*
X151674714Y-76662428D01*
X151746143Y-76626714D01*
X151889000Y-76590999D01*
X152067571Y-76590999D01*
X152210429Y-76626714D01*
X152281857Y-76662428D01*
X152317571Y-76698142D01*
X152353286Y-76769571D01*
X152353286Y-76840999D01*
X152317571Y-76912428D01*
X152281857Y-76948142D01*
X152210429Y-76983857D01*
X152067571Y-77019571D01*
X151889000Y-77019571D01*
X151746143Y-76983857D01*
X151674714Y-76948142D01*
X151639000Y-76912428D01*
X151603286Y-76840999D01*
X152353286Y-76269571D02*
X151603286Y-76269571D01*
X152067571Y-76198142D02*
X152353286Y-75983856D01*
X151853286Y-75983856D02*
X152139000Y-76269571D01*
X142748095Y-73514381D02*
X142748095Y-74323905D01*
X142795714Y-74419143D01*
X142843333Y-74466762D01*
X142938571Y-74514381D01*
X143129048Y-74514381D01*
X143224286Y-74466762D01*
X143271905Y-74419143D01*
X143319524Y-74323905D01*
X143319524Y-73514381D01*
X144319524Y-74514381D02*
X143748095Y-74514381D01*
X144033809Y-74514381D02*
X144033809Y-73514381D01*
X143938571Y-73657238D01*
X143843333Y-73752476D01*
X143748095Y-73800095D01*
X140724285Y-80201286D02*
X140724285Y-79451286D01*
X140974285Y-79987000D01*
X141224285Y-79451286D01*
X141224285Y-80201286D01*
X142010000Y-80129857D02*
X141974286Y-80165571D01*
X141867143Y-80201286D01*
X141795714Y-80201286D01*
X141688571Y-80165571D01*
X141617143Y-80094143D01*
X141581428Y-80022714D01*
X141545714Y-79879857D01*
X141545714Y-79772714D01*
X141581428Y-79629857D01*
X141617143Y-79558429D01*
X141688571Y-79487000D01*
X141795714Y-79451286D01*
X141867143Y-79451286D01*
X141974286Y-79487000D01*
X142010000Y-79522714D01*
X142331428Y-80201286D02*
X142331428Y-79451286D01*
X142617143Y-79451286D01*
X142688571Y-79487000D01*
X142724286Y-79522714D01*
X142760000Y-79594143D01*
X142760000Y-79701286D01*
X142724286Y-79772714D01*
X142688571Y-79808429D01*
X142617143Y-79844143D01*
X142331428Y-79844143D01*
X143010000Y-79451286D02*
X143510000Y-79451286D01*
X143188571Y-80201286D01*
X143724286Y-79451286D02*
X144188572Y-79451286D01*
X143938572Y-79737000D01*
X144045714Y-79737000D01*
X144117143Y-79772714D01*
X144152857Y-79808429D01*
X144188572Y-79879857D01*
X144188572Y-80058429D01*
X144152857Y-80129857D01*
X144117143Y-80165571D01*
X144045714Y-80201286D01*
X143831429Y-80201286D01*
X143760000Y-80165571D01*
X143724286Y-80129857D01*
X144617143Y-79772714D02*
X144545715Y-79737000D01*
X144510000Y-79701286D01*
X144474286Y-79629857D01*
X144474286Y-79594143D01*
X144510000Y-79522714D01*
X144545715Y-79487000D01*
X144617143Y-79451286D01*
X144760000Y-79451286D01*
X144831429Y-79487000D01*
X144867143Y-79522714D01*
X144902858Y-79594143D01*
X144902858Y-79629857D01*
X144867143Y-79701286D01*
X144831429Y-79737000D01*
X144760000Y-79772714D01*
X144617143Y-79772714D01*
X144545715Y-79808429D01*
X144510000Y-79844143D01*
X144474286Y-79915571D01*
X144474286Y-80058429D01*
X144510000Y-80129857D01*
X144545715Y-80165571D01*
X144617143Y-80201286D01*
X144760000Y-80201286D01*
X144831429Y-80165571D01*
X144867143Y-80129857D01*
X144902858Y-80058429D01*
X144902858Y-79915571D01*
X144867143Y-79844143D01*
X144831429Y-79808429D01*
X144760000Y-79772714D01*
X145152858Y-79451286D02*
X145617144Y-79451286D01*
X145367144Y-79737000D01*
X145474286Y-79737000D01*
X145545715Y-79772714D01*
X145581429Y-79808429D01*
X145617144Y-79879857D01*
X145617144Y-80058429D01*
X145581429Y-80129857D01*
X145545715Y-80165571D01*
X145474286Y-80201286D01*
X145260001Y-80201286D01*
X145188572Y-80165571D01*
X145152858Y-80129857D01*
X146331430Y-80201286D02*
X145902858Y-80201286D01*
X146117144Y-80201286D02*
X146117144Y-79451286D01*
X146045715Y-79558429D01*
X145974287Y-79629857D01*
X145902858Y-79665571D01*
X150976105Y-58701381D02*
X150976105Y-57701381D01*
X151357058Y-57701381D01*
X151452296Y-57749000D01*
X151499915Y-57796619D01*
X151547534Y-57891857D01*
X151547534Y-58034714D01*
X151499915Y-58129952D01*
X151452296Y-58177571D01*
X151357058Y-58225190D01*
X150976105Y-58225190D01*
X151928486Y-57796619D02*
X151976105Y-57749000D01*
X152071343Y-57701381D01*
X152309439Y-57701381D01*
X152404677Y-57749000D01*
X152452296Y-57796619D01*
X152499915Y-57891857D01*
X152499915Y-57987095D01*
X152452296Y-58129952D01*
X151880867Y-58701381D01*
X152499915Y-58701381D01*
X118111045Y-50308321D02*
X118111045Y-49308321D01*
X118491998Y-49308321D01*
X118587236Y-49355940D01*
X118634855Y-49403559D01*
X118682474Y-49498797D01*
X118682474Y-49641654D01*
X118634855Y-49736892D01*
X118587236Y-49784511D01*
X118491998Y-49832130D01*
X118111045Y-49832130D01*
X119015807Y-49308321D02*
X119634855Y-49308321D01*
X119301521Y-49689273D01*
X119444379Y-49689273D01*
X119539617Y-49736892D01*
X119587236Y-49784511D01*
X119634855Y-49879750D01*
X119634855Y-50117845D01*
X119587236Y-50213083D01*
X119539617Y-50260702D01*
X119444379Y-50308321D01*
X119158664Y-50308321D01*
X119063426Y-50260702D01*
X119015807Y-50213083D01*
X117263932Y-42382209D02*
X117513932Y-42382209D01*
X117621075Y-42775066D02*
X117263932Y-42775066D01*
X117263932Y-42025066D01*
X117621075Y-42025066D01*
X117871075Y-42775066D02*
X118263932Y-42275066D01*
X117871075Y-42275066D02*
X118263932Y-42775066D01*
X118442504Y-42275066D02*
X118728218Y-42275066D01*
X118549646Y-42025066D02*
X118549646Y-42667923D01*
X118585361Y-42739351D01*
X118656789Y-42775066D01*
X118728218Y-42775066D01*
X119228217Y-42382209D02*
X119335360Y-42417923D01*
X119371075Y-42453637D01*
X119406789Y-42525066D01*
X119406789Y-42632209D01*
X119371075Y-42703637D01*
X119335360Y-42739351D01*
X119263932Y-42775066D01*
X118978217Y-42775066D01*
X118978217Y-42025066D01*
X119228217Y-42025066D01*
X119299646Y-42060780D01*
X119335360Y-42096494D01*
X119371075Y-42167923D01*
X119371075Y-42239351D01*
X119335360Y-42310780D01*
X119299646Y-42346494D01*
X119228217Y-42382209D01*
X118978217Y-42382209D01*
X120049646Y-42775066D02*
X120049646Y-42382209D01*
X120013932Y-42310780D01*
X119942503Y-42275066D01*
X119799646Y-42275066D01*
X119728217Y-42310780D01*
X120049646Y-42739351D02*
X119978217Y-42775066D01*
X119799646Y-42775066D01*
X119728217Y-42739351D01*
X119692503Y-42667923D01*
X119692503Y-42596494D01*
X119728217Y-42525066D01*
X119799646Y-42489351D01*
X119978217Y-42489351D01*
X120049646Y-42453637D01*
X120299646Y-42275066D02*
X120585360Y-42275066D01*
X120406788Y-42025066D02*
X120406788Y-42667923D01*
X120442503Y-42739351D01*
X120513931Y-42775066D01*
X120585360Y-42775066D01*
X120728217Y-42275066D02*
X121013931Y-42275066D01*
X120835359Y-42025066D02*
X120835359Y-42667923D01*
X120871074Y-42739351D01*
X120942502Y-42775066D01*
X121013931Y-42775066D01*
M02*
