G04 #@! TF.FileFunction,Copper,L2,Bot,Signal*
%FSLAX46Y46*%
G04 Gerber Fmt 4.6, Leading zero omitted, Abs format (unit mm)*
G04 Created by KiCad (PCBNEW 4.0.4-stable) date 10/14/18 22:48:43*
%MOMM*%
%LPD*%
G01*
G04 APERTURE LIST*
%ADD10C,0.100000*%
%ADD11O,1.250000X0.950000*%
%ADD12O,1.000000X1.550000*%
%ADD13R,1.700000X1.700000*%
%ADD14O,1.700000X1.700000*%
%ADD15C,0.600000*%
%ADD16C,0.250000*%
%ADD17C,0.200000*%
G04 APERTURE END LIST*
D10*
D11*
X133390000Y-88566000D03*
X138390000Y-88566000D03*
D12*
X132390000Y-91266000D03*
X139390000Y-91266000D03*
D13*
X151714200Y-60579000D03*
D14*
X151714200Y-63119000D03*
D13*
X118849140Y-47525940D03*
D14*
X118849140Y-44985940D03*
D15*
X139049760Y-83332320D03*
X131902200Y-83314540D03*
X119828000Y-53340000D03*
X150495000Y-53416200D03*
X125698000Y-83058000D03*
X149961600Y-79461360D03*
X135732520Y-85130640D03*
X125028960Y-75849480D03*
X123390660Y-75803760D03*
X120159780Y-80665320D03*
X137604500Y-62641480D03*
X127984000Y-70358000D03*
X133334760Y-74691240D03*
D16*
X131919980Y-83332320D02*
X139049760Y-83332320D01*
X131902200Y-83314540D02*
X131919980Y-83332320D01*
X149085300Y-54825900D02*
X150495000Y-53416200D01*
X149085300Y-55549800D02*
X149085300Y-54825900D01*
X143941800Y-60693300D02*
X149085300Y-55549800D01*
X127181300Y-60693300D02*
X143941800Y-60693300D01*
X127181300Y-60693300D02*
X119828000Y-53340000D01*
X132390000Y-89623900D02*
X132263900Y-89623900D01*
X132263900Y-89623900D02*
X125698000Y-83058000D01*
X132390000Y-91266000D02*
X132390000Y-89623900D01*
X132390000Y-89623900D02*
X132390000Y-89566000D01*
X132390000Y-89566000D02*
X133390000Y-88566000D01*
X132390000Y-91266000D02*
X139390000Y-91266000D01*
X139390000Y-91266000D02*
X139390000Y-89566000D01*
X139390000Y-89566000D02*
X138390000Y-88566000D01*
X149961600Y-81823560D02*
X149961600Y-79461360D01*
X146867880Y-84917280D02*
X149961600Y-81823560D01*
X135945880Y-84917280D02*
X146867880Y-84917280D01*
X135732520Y-85130640D02*
X135945880Y-84917280D01*
X123436380Y-75849480D02*
X125028960Y-75849480D01*
X123390660Y-75803760D02*
X123436380Y-75849480D01*
X119862600Y-80368140D02*
X120159780Y-80665320D01*
X119862600Y-70896480D02*
X119862600Y-80368140D01*
X122834400Y-67924680D02*
X119862600Y-70896480D01*
X129527300Y-67924680D02*
X122834400Y-67924680D01*
X133134100Y-64317880D02*
X129527300Y-67924680D01*
X135928100Y-64317880D02*
X133134100Y-64317880D01*
X137604500Y-62641480D02*
X135928100Y-64317880D01*
X132641340Y-74691240D02*
X133334760Y-74691240D01*
X130168900Y-72218800D02*
X132641340Y-74691240D01*
X129844800Y-72218800D02*
X130168900Y-72218800D01*
X129844800Y-72218800D02*
X127984000Y-70358000D01*
D17*
G36*
X152366324Y-41015648D02*
X151569175Y-41174210D01*
X150864835Y-41644835D01*
X150394210Y-42349175D01*
X150228949Y-43180000D01*
X150394210Y-44010825D01*
X150864835Y-44715165D01*
X151569175Y-45185790D01*
X152400000Y-45351051D01*
X153230825Y-45185790D01*
X153935165Y-44715165D01*
X154405790Y-44010825D01*
X154564352Y-43213676D01*
X154565000Y-43216932D01*
X154565000Y-90133068D01*
X154564352Y-90136324D01*
X154405790Y-89339175D01*
X153935165Y-88634835D01*
X153230825Y-88164210D01*
X152400000Y-87998949D01*
X151569175Y-88164210D01*
X150864835Y-88634835D01*
X150394210Y-89339175D01*
X150228949Y-90170000D01*
X150394210Y-91000825D01*
X150864835Y-91705165D01*
X151569175Y-92175790D01*
X152366324Y-92334352D01*
X152363068Y-92335000D01*
X139440002Y-92335000D01*
X139440002Y-92264275D01*
X139564287Y-92321784D01*
X139649953Y-92299238D01*
X139920330Y-92142041D01*
X140109969Y-91893341D01*
X140190000Y-91591000D01*
X140190000Y-91316000D01*
X139440000Y-91316000D01*
X139440000Y-91336000D01*
X139340000Y-91336000D01*
X139340000Y-91316000D01*
X138590000Y-91316000D01*
X138590000Y-91591000D01*
X138670031Y-91893341D01*
X138859670Y-92142041D01*
X139130047Y-92299238D01*
X139215713Y-92321784D01*
X139339998Y-92264275D01*
X139339998Y-92335000D01*
X132440002Y-92335000D01*
X132440002Y-92264275D01*
X132564287Y-92321784D01*
X132649953Y-92299238D01*
X132920330Y-92142041D01*
X133109969Y-91893341D01*
X133190000Y-91591000D01*
X133190000Y-91316000D01*
X132440000Y-91316000D01*
X132440000Y-91336000D01*
X132340000Y-91336000D01*
X132340000Y-91316000D01*
X131590000Y-91316000D01*
X131590000Y-91591000D01*
X131670031Y-91893341D01*
X131859670Y-92142041D01*
X132130047Y-92299238D01*
X132215713Y-92321784D01*
X132339998Y-92264275D01*
X132339998Y-92335000D01*
X118146932Y-92335000D01*
X118143676Y-92334352D01*
X118940825Y-92175790D01*
X119645165Y-91705165D01*
X120115790Y-91000825D01*
X120127689Y-90941000D01*
X131590000Y-90941000D01*
X131590000Y-91216000D01*
X132340000Y-91216000D01*
X132340000Y-90267726D01*
X132440000Y-90267726D01*
X132440000Y-91216000D01*
X133190000Y-91216000D01*
X133190000Y-90941000D01*
X138590000Y-90941000D01*
X138590000Y-91216000D01*
X139340000Y-91216000D01*
X139340000Y-90267726D01*
X139440000Y-90267726D01*
X139440000Y-91216000D01*
X140190000Y-91216000D01*
X140190000Y-90941000D01*
X140109969Y-90638659D01*
X139920330Y-90389959D01*
X139649953Y-90232762D01*
X139564287Y-90210216D01*
X139440000Y-90267726D01*
X139340000Y-90267726D01*
X139215713Y-90210216D01*
X139130047Y-90232762D01*
X138859670Y-90389959D01*
X138670031Y-90638659D01*
X138590000Y-90941000D01*
X133190000Y-90941000D01*
X133109969Y-90638659D01*
X132920330Y-90389959D01*
X132649953Y-90232762D01*
X132564287Y-90210216D01*
X132440000Y-90267726D01*
X132340000Y-90267726D01*
X132215713Y-90210216D01*
X132130047Y-90232762D01*
X131859670Y-90389959D01*
X131670031Y-90638659D01*
X131590000Y-90941000D01*
X120127689Y-90941000D01*
X120281051Y-90170000D01*
X120115790Y-89339175D01*
X119713008Y-88736368D01*
X132483958Y-88736368D01*
X132504859Y-88816385D01*
X132656637Y-89078652D01*
X132897226Y-89262872D01*
X133190000Y-89341000D01*
X133340000Y-89341000D01*
X133340000Y-88616000D01*
X133440000Y-88616000D01*
X133440000Y-89341000D01*
X133590000Y-89341000D01*
X133882774Y-89262872D01*
X134123363Y-89078652D01*
X134275141Y-88816385D01*
X134296042Y-88736368D01*
X137483958Y-88736368D01*
X137504859Y-88816385D01*
X137656637Y-89078652D01*
X137897226Y-89262872D01*
X138190000Y-89341000D01*
X138340000Y-89341000D01*
X138340000Y-88616000D01*
X138440000Y-88616000D01*
X138440000Y-89341000D01*
X138590000Y-89341000D01*
X138882774Y-89262872D01*
X139123363Y-89078652D01*
X139275141Y-88816385D01*
X139296042Y-88736368D01*
X139238212Y-88616000D01*
X138440000Y-88616000D01*
X138340000Y-88616000D01*
X137541788Y-88616000D01*
X137483958Y-88736368D01*
X134296042Y-88736368D01*
X134238212Y-88616000D01*
X133440000Y-88616000D01*
X133340000Y-88616000D01*
X132541788Y-88616000D01*
X132483958Y-88736368D01*
X119713008Y-88736368D01*
X119645165Y-88634835D01*
X119287173Y-88395632D01*
X132483958Y-88395632D01*
X132541788Y-88516000D01*
X133340000Y-88516000D01*
X133340000Y-87791000D01*
X133440000Y-87791000D01*
X133440000Y-88516000D01*
X134238212Y-88516000D01*
X134296042Y-88395632D01*
X137483958Y-88395632D01*
X137541788Y-88516000D01*
X138340000Y-88516000D01*
X138340000Y-87791000D01*
X138440000Y-87791000D01*
X138440000Y-88516000D01*
X139238212Y-88516000D01*
X139296042Y-88395632D01*
X139275141Y-88315615D01*
X139123363Y-88053348D01*
X138882774Y-87869128D01*
X138590000Y-87791000D01*
X138440000Y-87791000D01*
X138340000Y-87791000D01*
X138190000Y-87791000D01*
X137897226Y-87869128D01*
X137656637Y-88053348D01*
X137504859Y-88315615D01*
X137483958Y-88395632D01*
X134296042Y-88395632D01*
X134275141Y-88315615D01*
X134123363Y-88053348D01*
X133882774Y-87869128D01*
X133590000Y-87791000D01*
X133440000Y-87791000D01*
X133340000Y-87791000D01*
X133190000Y-87791000D01*
X132897226Y-87869128D01*
X132656637Y-88053348D01*
X132504859Y-88315615D01*
X132483958Y-88395632D01*
X119287173Y-88395632D01*
X118940825Y-88164210D01*
X118110000Y-87998949D01*
X117279175Y-88164210D01*
X116574835Y-88634835D01*
X116104210Y-89339175D01*
X115945648Y-90136324D01*
X115945000Y-90133068D01*
X115945000Y-85249464D01*
X135132416Y-85249464D01*
X135223568Y-85470069D01*
X135392203Y-85638999D01*
X135612649Y-85730536D01*
X135851344Y-85730744D01*
X136071949Y-85639592D01*
X136240879Y-85470957D01*
X136294310Y-85342280D01*
X146867880Y-85342280D01*
X147003537Y-85315296D01*
X147030521Y-85309929D01*
X147168400Y-85217800D01*
X150262121Y-82124080D01*
X150354249Y-81986201D01*
X150386600Y-81823560D01*
X150386600Y-79884890D01*
X150469959Y-79801677D01*
X150561496Y-79581231D01*
X150561704Y-79342536D01*
X150470552Y-79121931D01*
X150301917Y-78953001D01*
X150081471Y-78861464D01*
X149842776Y-78861256D01*
X149622171Y-78952408D01*
X149453241Y-79121043D01*
X149361704Y-79341489D01*
X149361496Y-79580184D01*
X149452648Y-79800789D01*
X149536600Y-79884888D01*
X149536600Y-81647519D01*
X146691840Y-84492280D01*
X135945880Y-84492280D01*
X135783239Y-84524631D01*
X135774192Y-84530676D01*
X135613696Y-84530536D01*
X135393091Y-84621688D01*
X135224161Y-84790323D01*
X135132624Y-85010769D01*
X135132416Y-85249464D01*
X115945000Y-85249464D01*
X115945000Y-83433364D01*
X131302096Y-83433364D01*
X131393248Y-83653969D01*
X131561883Y-83822899D01*
X131782329Y-83914436D01*
X132021024Y-83914644D01*
X132241629Y-83823492D01*
X132307917Y-83757320D01*
X138626230Y-83757320D01*
X138709443Y-83840679D01*
X138929889Y-83932216D01*
X139168584Y-83932424D01*
X139389189Y-83841272D01*
X139558119Y-83672637D01*
X139649656Y-83452191D01*
X139649864Y-83213496D01*
X139558712Y-82992891D01*
X139390077Y-82823961D01*
X139169631Y-82732424D01*
X138930936Y-82732216D01*
X138710331Y-82823368D01*
X138626232Y-82907320D01*
X132343479Y-82907320D01*
X132242517Y-82806181D01*
X132022071Y-82714644D01*
X131783376Y-82714436D01*
X131562771Y-82805588D01*
X131393841Y-82974223D01*
X131302304Y-83194669D01*
X131302096Y-83433364D01*
X115945000Y-83433364D01*
X115945000Y-70896480D01*
X119437600Y-70896480D01*
X119437600Y-80368140D01*
X119464361Y-80502679D01*
X119469951Y-80530781D01*
X119559780Y-80665217D01*
X119559676Y-80784144D01*
X119650828Y-81004749D01*
X119819463Y-81173679D01*
X120039909Y-81265216D01*
X120278604Y-81265424D01*
X120499209Y-81174272D01*
X120668139Y-81005637D01*
X120759676Y-80785191D01*
X120759884Y-80546496D01*
X120668732Y-80325891D01*
X120500097Y-80156961D01*
X120287600Y-80068725D01*
X120287600Y-75922584D01*
X122790556Y-75922584D01*
X122881708Y-76143189D01*
X123050343Y-76312119D01*
X123270789Y-76403656D01*
X123509484Y-76403864D01*
X123730089Y-76312712D01*
X123768388Y-76274480D01*
X124605430Y-76274480D01*
X124688643Y-76357839D01*
X124909089Y-76449376D01*
X125147784Y-76449584D01*
X125368389Y-76358432D01*
X125537319Y-76189797D01*
X125628856Y-75969351D01*
X125629064Y-75730656D01*
X125537912Y-75510051D01*
X125369277Y-75341121D01*
X125148831Y-75249584D01*
X124910136Y-75249376D01*
X124689531Y-75340528D01*
X124605432Y-75424480D01*
X123859831Y-75424480D01*
X123730977Y-75295401D01*
X123510531Y-75203864D01*
X123271836Y-75203656D01*
X123051231Y-75294808D01*
X122882301Y-75463443D01*
X122790764Y-75683889D01*
X122790556Y-75922584D01*
X120287600Y-75922584D01*
X120287600Y-71072520D01*
X120883296Y-70476824D01*
X127383896Y-70476824D01*
X127475048Y-70697429D01*
X127643683Y-70866359D01*
X127864129Y-70957896D01*
X127982959Y-70958000D01*
X129544280Y-72519321D01*
X129682159Y-72611449D01*
X129844800Y-72643800D01*
X129992860Y-72643800D01*
X132340819Y-74991760D01*
X132399051Y-75030669D01*
X132478700Y-75083889D01*
X132641340Y-75116240D01*
X132911230Y-75116240D01*
X132994443Y-75199599D01*
X133214889Y-75291136D01*
X133453584Y-75291344D01*
X133674189Y-75200192D01*
X133843119Y-75031557D01*
X133934656Y-74811111D01*
X133934864Y-74572416D01*
X133843712Y-74351811D01*
X133675077Y-74182881D01*
X133454631Y-74091344D01*
X133215936Y-74091136D01*
X132995331Y-74182288D01*
X132911232Y-74266240D01*
X132817381Y-74266240D01*
X130469420Y-71918280D01*
X130331541Y-71826151D01*
X130304557Y-71820784D01*
X130168900Y-71793800D01*
X130020841Y-71793800D01*
X128584001Y-70356961D01*
X128584104Y-70239176D01*
X128492952Y-70018571D01*
X128324317Y-69849641D01*
X128103871Y-69758104D01*
X127865176Y-69757896D01*
X127644571Y-69849048D01*
X127475641Y-70017683D01*
X127384104Y-70238129D01*
X127383896Y-70476824D01*
X120883296Y-70476824D01*
X123010440Y-68349680D01*
X129527300Y-68349680D01*
X129662957Y-68322696D01*
X129689941Y-68317329D01*
X129827820Y-68225200D01*
X133310141Y-64742880D01*
X135928100Y-64742880D01*
X136063757Y-64715896D01*
X136090741Y-64710529D01*
X136228620Y-64618400D01*
X137498906Y-63348114D01*
X150587254Y-63348114D01*
X150755317Y-63753866D01*
X151071260Y-64072488D01*
X151485085Y-64245950D01*
X151664200Y-64192917D01*
X151664200Y-63169000D01*
X151764200Y-63169000D01*
X151764200Y-64192917D01*
X151943315Y-64245950D01*
X152357140Y-64072488D01*
X152673083Y-63753866D01*
X152841146Y-63348114D01*
X152788037Y-63169000D01*
X151764200Y-63169000D01*
X151664200Y-63169000D01*
X150640363Y-63169000D01*
X150587254Y-63348114D01*
X137498906Y-63348114D01*
X137605539Y-63241481D01*
X137723324Y-63241584D01*
X137943929Y-63150432D01*
X138112859Y-62981797D01*
X138151023Y-62889886D01*
X150587254Y-62889886D01*
X150640363Y-63069000D01*
X151664200Y-63069000D01*
X151664200Y-62045083D01*
X151764200Y-62045083D01*
X151764200Y-63069000D01*
X152788037Y-63069000D01*
X152841146Y-62889886D01*
X152673083Y-62484134D01*
X152357140Y-62165512D01*
X151943315Y-61992050D01*
X151764200Y-62045083D01*
X151664200Y-62045083D01*
X151485085Y-61992050D01*
X151071260Y-62165512D01*
X150755317Y-62484134D01*
X150587254Y-62889886D01*
X138151023Y-62889886D01*
X138204396Y-62761351D01*
X138204604Y-62522656D01*
X138113452Y-62302051D01*
X137944817Y-62133121D01*
X137724371Y-62041584D01*
X137485676Y-62041376D01*
X137265071Y-62132528D01*
X137096141Y-62301163D01*
X137004604Y-62521609D01*
X137004500Y-62640439D01*
X135752060Y-63892880D01*
X133134100Y-63892880D01*
X132971460Y-63925231D01*
X132971458Y-63925232D01*
X132971459Y-63925232D01*
X132833579Y-64017360D01*
X129351260Y-67499680D01*
X122834400Y-67499680D01*
X122671759Y-67532031D01*
X122533880Y-67624160D01*
X119562080Y-70595960D01*
X119469951Y-70733839D01*
X119469951Y-70733840D01*
X119437600Y-70896480D01*
X115945000Y-70896480D01*
X115945000Y-53458824D01*
X119227896Y-53458824D01*
X119319048Y-53679429D01*
X119487683Y-53848359D01*
X119708129Y-53939896D01*
X119826960Y-53940000D01*
X126880780Y-60993821D01*
X127018659Y-61085949D01*
X127181300Y-61118300D01*
X143941800Y-61118300D01*
X144077457Y-61091316D01*
X144104441Y-61085949D01*
X144242320Y-60993820D01*
X145507140Y-59729000D01*
X150558323Y-59729000D01*
X150558323Y-61429000D01*
X150579242Y-61540173D01*
X150644945Y-61642279D01*
X150745197Y-61710778D01*
X150864200Y-61734877D01*
X152564200Y-61734877D01*
X152675373Y-61713958D01*
X152777479Y-61648255D01*
X152845978Y-61548003D01*
X152870077Y-61429000D01*
X152870077Y-59729000D01*
X152849158Y-59617827D01*
X152783455Y-59515721D01*
X152683203Y-59447222D01*
X152564200Y-59423123D01*
X150864200Y-59423123D01*
X150753027Y-59444042D01*
X150650921Y-59509745D01*
X150582422Y-59609997D01*
X150558323Y-59729000D01*
X145507140Y-59729000D01*
X149385820Y-55850321D01*
X149477948Y-55712441D01*
X149477949Y-55712440D01*
X149510300Y-55549800D01*
X149510300Y-55001940D01*
X150496039Y-54016201D01*
X150613824Y-54016304D01*
X150834429Y-53925152D01*
X151003359Y-53756517D01*
X151094896Y-53536071D01*
X151095104Y-53297376D01*
X151003952Y-53076771D01*
X150835317Y-52907841D01*
X150614871Y-52816304D01*
X150376176Y-52816096D01*
X150155571Y-52907248D01*
X149986641Y-53075883D01*
X149895104Y-53296329D01*
X149895000Y-53415160D01*
X148784780Y-54525380D01*
X148692651Y-54663259D01*
X148692651Y-54663260D01*
X148660300Y-54825900D01*
X148660300Y-55373759D01*
X143765760Y-60268300D01*
X127357341Y-60268300D01*
X120428001Y-53338961D01*
X120428104Y-53221176D01*
X120336952Y-53000571D01*
X120168317Y-52831641D01*
X119947871Y-52740104D01*
X119709176Y-52739896D01*
X119488571Y-52831048D01*
X119319641Y-52999683D01*
X119228104Y-53220129D01*
X119227896Y-53458824D01*
X115945000Y-53458824D01*
X115945000Y-46675940D01*
X117693263Y-46675940D01*
X117693263Y-48375940D01*
X117714182Y-48487113D01*
X117779885Y-48589219D01*
X117880137Y-48657718D01*
X117999140Y-48681817D01*
X119699140Y-48681817D01*
X119810313Y-48660898D01*
X119912419Y-48595195D01*
X119980918Y-48494943D01*
X120005017Y-48375940D01*
X120005017Y-46675940D01*
X119984098Y-46564767D01*
X119918395Y-46462661D01*
X119818143Y-46394162D01*
X119699140Y-46370063D01*
X117999140Y-46370063D01*
X117887967Y-46390982D01*
X117785861Y-46456685D01*
X117717362Y-46556937D01*
X117693263Y-46675940D01*
X115945000Y-46675940D01*
X115945000Y-45215054D01*
X117722194Y-45215054D01*
X117890257Y-45620806D01*
X118206200Y-45939428D01*
X118620025Y-46112890D01*
X118799140Y-46059857D01*
X118799140Y-45035940D01*
X118899140Y-45035940D01*
X118899140Y-46059857D01*
X119078255Y-46112890D01*
X119492080Y-45939428D01*
X119808023Y-45620806D01*
X119976086Y-45215054D01*
X119922977Y-45035940D01*
X118899140Y-45035940D01*
X118799140Y-45035940D01*
X117775303Y-45035940D01*
X117722194Y-45215054D01*
X115945000Y-45215054D01*
X115945000Y-44756826D01*
X117722194Y-44756826D01*
X117775303Y-44935940D01*
X118799140Y-44935940D01*
X118799140Y-43912023D01*
X118899140Y-43912023D01*
X118899140Y-44935940D01*
X119922977Y-44935940D01*
X119976086Y-44756826D01*
X119808023Y-44351074D01*
X119492080Y-44032452D01*
X119078255Y-43858990D01*
X118899140Y-43912023D01*
X118799140Y-43912023D01*
X118620025Y-43858990D01*
X118206200Y-44032452D01*
X117890257Y-44351074D01*
X117722194Y-44756826D01*
X115945000Y-44756826D01*
X115945000Y-43216932D01*
X116116588Y-42354303D01*
X116584309Y-41654309D01*
X117284303Y-41186588D01*
X118146932Y-41015000D01*
X152363068Y-41015000D01*
X152366324Y-41015648D01*
X152366324Y-41015648D01*
G37*
X152366324Y-41015648D02*
X151569175Y-41174210D01*
X150864835Y-41644835D01*
X150394210Y-42349175D01*
X150228949Y-43180000D01*
X150394210Y-44010825D01*
X150864835Y-44715165D01*
X151569175Y-45185790D01*
X152400000Y-45351051D01*
X153230825Y-45185790D01*
X153935165Y-44715165D01*
X154405790Y-44010825D01*
X154564352Y-43213676D01*
X154565000Y-43216932D01*
X154565000Y-90133068D01*
X154564352Y-90136324D01*
X154405790Y-89339175D01*
X153935165Y-88634835D01*
X153230825Y-88164210D01*
X152400000Y-87998949D01*
X151569175Y-88164210D01*
X150864835Y-88634835D01*
X150394210Y-89339175D01*
X150228949Y-90170000D01*
X150394210Y-91000825D01*
X150864835Y-91705165D01*
X151569175Y-92175790D01*
X152366324Y-92334352D01*
X152363068Y-92335000D01*
X139440002Y-92335000D01*
X139440002Y-92264275D01*
X139564287Y-92321784D01*
X139649953Y-92299238D01*
X139920330Y-92142041D01*
X140109969Y-91893341D01*
X140190000Y-91591000D01*
X140190000Y-91316000D01*
X139440000Y-91316000D01*
X139440000Y-91336000D01*
X139340000Y-91336000D01*
X139340000Y-91316000D01*
X138590000Y-91316000D01*
X138590000Y-91591000D01*
X138670031Y-91893341D01*
X138859670Y-92142041D01*
X139130047Y-92299238D01*
X139215713Y-92321784D01*
X139339998Y-92264275D01*
X139339998Y-92335000D01*
X132440002Y-92335000D01*
X132440002Y-92264275D01*
X132564287Y-92321784D01*
X132649953Y-92299238D01*
X132920330Y-92142041D01*
X133109969Y-91893341D01*
X133190000Y-91591000D01*
X133190000Y-91316000D01*
X132440000Y-91316000D01*
X132440000Y-91336000D01*
X132340000Y-91336000D01*
X132340000Y-91316000D01*
X131590000Y-91316000D01*
X131590000Y-91591000D01*
X131670031Y-91893341D01*
X131859670Y-92142041D01*
X132130047Y-92299238D01*
X132215713Y-92321784D01*
X132339998Y-92264275D01*
X132339998Y-92335000D01*
X118146932Y-92335000D01*
X118143676Y-92334352D01*
X118940825Y-92175790D01*
X119645165Y-91705165D01*
X120115790Y-91000825D01*
X120127689Y-90941000D01*
X131590000Y-90941000D01*
X131590000Y-91216000D01*
X132340000Y-91216000D01*
X132340000Y-90267726D01*
X132440000Y-90267726D01*
X132440000Y-91216000D01*
X133190000Y-91216000D01*
X133190000Y-90941000D01*
X138590000Y-90941000D01*
X138590000Y-91216000D01*
X139340000Y-91216000D01*
X139340000Y-90267726D01*
X139440000Y-90267726D01*
X139440000Y-91216000D01*
X140190000Y-91216000D01*
X140190000Y-90941000D01*
X140109969Y-90638659D01*
X139920330Y-90389959D01*
X139649953Y-90232762D01*
X139564287Y-90210216D01*
X139440000Y-90267726D01*
X139340000Y-90267726D01*
X139215713Y-90210216D01*
X139130047Y-90232762D01*
X138859670Y-90389959D01*
X138670031Y-90638659D01*
X138590000Y-90941000D01*
X133190000Y-90941000D01*
X133109969Y-90638659D01*
X132920330Y-90389959D01*
X132649953Y-90232762D01*
X132564287Y-90210216D01*
X132440000Y-90267726D01*
X132340000Y-90267726D01*
X132215713Y-90210216D01*
X132130047Y-90232762D01*
X131859670Y-90389959D01*
X131670031Y-90638659D01*
X131590000Y-90941000D01*
X120127689Y-90941000D01*
X120281051Y-90170000D01*
X120115790Y-89339175D01*
X119713008Y-88736368D01*
X132483958Y-88736368D01*
X132504859Y-88816385D01*
X132656637Y-89078652D01*
X132897226Y-89262872D01*
X133190000Y-89341000D01*
X133340000Y-89341000D01*
X133340000Y-88616000D01*
X133440000Y-88616000D01*
X133440000Y-89341000D01*
X133590000Y-89341000D01*
X133882774Y-89262872D01*
X134123363Y-89078652D01*
X134275141Y-88816385D01*
X134296042Y-88736368D01*
X137483958Y-88736368D01*
X137504859Y-88816385D01*
X137656637Y-89078652D01*
X137897226Y-89262872D01*
X138190000Y-89341000D01*
X138340000Y-89341000D01*
X138340000Y-88616000D01*
X138440000Y-88616000D01*
X138440000Y-89341000D01*
X138590000Y-89341000D01*
X138882774Y-89262872D01*
X139123363Y-89078652D01*
X139275141Y-88816385D01*
X139296042Y-88736368D01*
X139238212Y-88616000D01*
X138440000Y-88616000D01*
X138340000Y-88616000D01*
X137541788Y-88616000D01*
X137483958Y-88736368D01*
X134296042Y-88736368D01*
X134238212Y-88616000D01*
X133440000Y-88616000D01*
X133340000Y-88616000D01*
X132541788Y-88616000D01*
X132483958Y-88736368D01*
X119713008Y-88736368D01*
X119645165Y-88634835D01*
X119287173Y-88395632D01*
X132483958Y-88395632D01*
X132541788Y-88516000D01*
X133340000Y-88516000D01*
X133340000Y-87791000D01*
X133440000Y-87791000D01*
X133440000Y-88516000D01*
X134238212Y-88516000D01*
X134296042Y-88395632D01*
X137483958Y-88395632D01*
X137541788Y-88516000D01*
X138340000Y-88516000D01*
X138340000Y-87791000D01*
X138440000Y-87791000D01*
X138440000Y-88516000D01*
X139238212Y-88516000D01*
X139296042Y-88395632D01*
X139275141Y-88315615D01*
X139123363Y-88053348D01*
X138882774Y-87869128D01*
X138590000Y-87791000D01*
X138440000Y-87791000D01*
X138340000Y-87791000D01*
X138190000Y-87791000D01*
X137897226Y-87869128D01*
X137656637Y-88053348D01*
X137504859Y-88315615D01*
X137483958Y-88395632D01*
X134296042Y-88395632D01*
X134275141Y-88315615D01*
X134123363Y-88053348D01*
X133882774Y-87869128D01*
X133590000Y-87791000D01*
X133440000Y-87791000D01*
X133340000Y-87791000D01*
X133190000Y-87791000D01*
X132897226Y-87869128D01*
X132656637Y-88053348D01*
X132504859Y-88315615D01*
X132483958Y-88395632D01*
X119287173Y-88395632D01*
X118940825Y-88164210D01*
X118110000Y-87998949D01*
X117279175Y-88164210D01*
X116574835Y-88634835D01*
X116104210Y-89339175D01*
X115945648Y-90136324D01*
X115945000Y-90133068D01*
X115945000Y-85249464D01*
X135132416Y-85249464D01*
X135223568Y-85470069D01*
X135392203Y-85638999D01*
X135612649Y-85730536D01*
X135851344Y-85730744D01*
X136071949Y-85639592D01*
X136240879Y-85470957D01*
X136294310Y-85342280D01*
X146867880Y-85342280D01*
X147003537Y-85315296D01*
X147030521Y-85309929D01*
X147168400Y-85217800D01*
X150262121Y-82124080D01*
X150354249Y-81986201D01*
X150386600Y-81823560D01*
X150386600Y-79884890D01*
X150469959Y-79801677D01*
X150561496Y-79581231D01*
X150561704Y-79342536D01*
X150470552Y-79121931D01*
X150301917Y-78953001D01*
X150081471Y-78861464D01*
X149842776Y-78861256D01*
X149622171Y-78952408D01*
X149453241Y-79121043D01*
X149361704Y-79341489D01*
X149361496Y-79580184D01*
X149452648Y-79800789D01*
X149536600Y-79884888D01*
X149536600Y-81647519D01*
X146691840Y-84492280D01*
X135945880Y-84492280D01*
X135783239Y-84524631D01*
X135774192Y-84530676D01*
X135613696Y-84530536D01*
X135393091Y-84621688D01*
X135224161Y-84790323D01*
X135132624Y-85010769D01*
X135132416Y-85249464D01*
X115945000Y-85249464D01*
X115945000Y-83433364D01*
X131302096Y-83433364D01*
X131393248Y-83653969D01*
X131561883Y-83822899D01*
X131782329Y-83914436D01*
X132021024Y-83914644D01*
X132241629Y-83823492D01*
X132307917Y-83757320D01*
X138626230Y-83757320D01*
X138709443Y-83840679D01*
X138929889Y-83932216D01*
X139168584Y-83932424D01*
X139389189Y-83841272D01*
X139558119Y-83672637D01*
X139649656Y-83452191D01*
X139649864Y-83213496D01*
X139558712Y-82992891D01*
X139390077Y-82823961D01*
X139169631Y-82732424D01*
X138930936Y-82732216D01*
X138710331Y-82823368D01*
X138626232Y-82907320D01*
X132343479Y-82907320D01*
X132242517Y-82806181D01*
X132022071Y-82714644D01*
X131783376Y-82714436D01*
X131562771Y-82805588D01*
X131393841Y-82974223D01*
X131302304Y-83194669D01*
X131302096Y-83433364D01*
X115945000Y-83433364D01*
X115945000Y-70896480D01*
X119437600Y-70896480D01*
X119437600Y-80368140D01*
X119464361Y-80502679D01*
X119469951Y-80530781D01*
X119559780Y-80665217D01*
X119559676Y-80784144D01*
X119650828Y-81004749D01*
X119819463Y-81173679D01*
X120039909Y-81265216D01*
X120278604Y-81265424D01*
X120499209Y-81174272D01*
X120668139Y-81005637D01*
X120759676Y-80785191D01*
X120759884Y-80546496D01*
X120668732Y-80325891D01*
X120500097Y-80156961D01*
X120287600Y-80068725D01*
X120287600Y-75922584D01*
X122790556Y-75922584D01*
X122881708Y-76143189D01*
X123050343Y-76312119D01*
X123270789Y-76403656D01*
X123509484Y-76403864D01*
X123730089Y-76312712D01*
X123768388Y-76274480D01*
X124605430Y-76274480D01*
X124688643Y-76357839D01*
X124909089Y-76449376D01*
X125147784Y-76449584D01*
X125368389Y-76358432D01*
X125537319Y-76189797D01*
X125628856Y-75969351D01*
X125629064Y-75730656D01*
X125537912Y-75510051D01*
X125369277Y-75341121D01*
X125148831Y-75249584D01*
X124910136Y-75249376D01*
X124689531Y-75340528D01*
X124605432Y-75424480D01*
X123859831Y-75424480D01*
X123730977Y-75295401D01*
X123510531Y-75203864D01*
X123271836Y-75203656D01*
X123051231Y-75294808D01*
X122882301Y-75463443D01*
X122790764Y-75683889D01*
X122790556Y-75922584D01*
X120287600Y-75922584D01*
X120287600Y-71072520D01*
X120883296Y-70476824D01*
X127383896Y-70476824D01*
X127475048Y-70697429D01*
X127643683Y-70866359D01*
X127864129Y-70957896D01*
X127982959Y-70958000D01*
X129544280Y-72519321D01*
X129682159Y-72611449D01*
X129844800Y-72643800D01*
X129992860Y-72643800D01*
X132340819Y-74991760D01*
X132399051Y-75030669D01*
X132478700Y-75083889D01*
X132641340Y-75116240D01*
X132911230Y-75116240D01*
X132994443Y-75199599D01*
X133214889Y-75291136D01*
X133453584Y-75291344D01*
X133674189Y-75200192D01*
X133843119Y-75031557D01*
X133934656Y-74811111D01*
X133934864Y-74572416D01*
X133843712Y-74351811D01*
X133675077Y-74182881D01*
X133454631Y-74091344D01*
X133215936Y-74091136D01*
X132995331Y-74182288D01*
X132911232Y-74266240D01*
X132817381Y-74266240D01*
X130469420Y-71918280D01*
X130331541Y-71826151D01*
X130304557Y-71820784D01*
X130168900Y-71793800D01*
X130020841Y-71793800D01*
X128584001Y-70356961D01*
X128584104Y-70239176D01*
X128492952Y-70018571D01*
X128324317Y-69849641D01*
X128103871Y-69758104D01*
X127865176Y-69757896D01*
X127644571Y-69849048D01*
X127475641Y-70017683D01*
X127384104Y-70238129D01*
X127383896Y-70476824D01*
X120883296Y-70476824D01*
X123010440Y-68349680D01*
X129527300Y-68349680D01*
X129662957Y-68322696D01*
X129689941Y-68317329D01*
X129827820Y-68225200D01*
X133310141Y-64742880D01*
X135928100Y-64742880D01*
X136063757Y-64715896D01*
X136090741Y-64710529D01*
X136228620Y-64618400D01*
X137498906Y-63348114D01*
X150587254Y-63348114D01*
X150755317Y-63753866D01*
X151071260Y-64072488D01*
X151485085Y-64245950D01*
X151664200Y-64192917D01*
X151664200Y-63169000D01*
X151764200Y-63169000D01*
X151764200Y-64192917D01*
X151943315Y-64245950D01*
X152357140Y-64072488D01*
X152673083Y-63753866D01*
X152841146Y-63348114D01*
X152788037Y-63169000D01*
X151764200Y-63169000D01*
X151664200Y-63169000D01*
X150640363Y-63169000D01*
X150587254Y-63348114D01*
X137498906Y-63348114D01*
X137605539Y-63241481D01*
X137723324Y-63241584D01*
X137943929Y-63150432D01*
X138112859Y-62981797D01*
X138151023Y-62889886D01*
X150587254Y-62889886D01*
X150640363Y-63069000D01*
X151664200Y-63069000D01*
X151664200Y-62045083D01*
X151764200Y-62045083D01*
X151764200Y-63069000D01*
X152788037Y-63069000D01*
X152841146Y-62889886D01*
X152673083Y-62484134D01*
X152357140Y-62165512D01*
X151943315Y-61992050D01*
X151764200Y-62045083D01*
X151664200Y-62045083D01*
X151485085Y-61992050D01*
X151071260Y-62165512D01*
X150755317Y-62484134D01*
X150587254Y-62889886D01*
X138151023Y-62889886D01*
X138204396Y-62761351D01*
X138204604Y-62522656D01*
X138113452Y-62302051D01*
X137944817Y-62133121D01*
X137724371Y-62041584D01*
X137485676Y-62041376D01*
X137265071Y-62132528D01*
X137096141Y-62301163D01*
X137004604Y-62521609D01*
X137004500Y-62640439D01*
X135752060Y-63892880D01*
X133134100Y-63892880D01*
X132971460Y-63925231D01*
X132971458Y-63925232D01*
X132971459Y-63925232D01*
X132833579Y-64017360D01*
X129351260Y-67499680D01*
X122834400Y-67499680D01*
X122671759Y-67532031D01*
X122533880Y-67624160D01*
X119562080Y-70595960D01*
X119469951Y-70733839D01*
X119469951Y-70733840D01*
X119437600Y-70896480D01*
X115945000Y-70896480D01*
X115945000Y-53458824D01*
X119227896Y-53458824D01*
X119319048Y-53679429D01*
X119487683Y-53848359D01*
X119708129Y-53939896D01*
X119826960Y-53940000D01*
X126880780Y-60993821D01*
X127018659Y-61085949D01*
X127181300Y-61118300D01*
X143941800Y-61118300D01*
X144077457Y-61091316D01*
X144104441Y-61085949D01*
X144242320Y-60993820D01*
X145507140Y-59729000D01*
X150558323Y-59729000D01*
X150558323Y-61429000D01*
X150579242Y-61540173D01*
X150644945Y-61642279D01*
X150745197Y-61710778D01*
X150864200Y-61734877D01*
X152564200Y-61734877D01*
X152675373Y-61713958D01*
X152777479Y-61648255D01*
X152845978Y-61548003D01*
X152870077Y-61429000D01*
X152870077Y-59729000D01*
X152849158Y-59617827D01*
X152783455Y-59515721D01*
X152683203Y-59447222D01*
X152564200Y-59423123D01*
X150864200Y-59423123D01*
X150753027Y-59444042D01*
X150650921Y-59509745D01*
X150582422Y-59609997D01*
X150558323Y-59729000D01*
X145507140Y-59729000D01*
X149385820Y-55850321D01*
X149477948Y-55712441D01*
X149477949Y-55712440D01*
X149510300Y-55549800D01*
X149510300Y-55001940D01*
X150496039Y-54016201D01*
X150613824Y-54016304D01*
X150834429Y-53925152D01*
X151003359Y-53756517D01*
X151094896Y-53536071D01*
X151095104Y-53297376D01*
X151003952Y-53076771D01*
X150835317Y-52907841D01*
X150614871Y-52816304D01*
X150376176Y-52816096D01*
X150155571Y-52907248D01*
X149986641Y-53075883D01*
X149895104Y-53296329D01*
X149895000Y-53415160D01*
X148784780Y-54525380D01*
X148692651Y-54663259D01*
X148692651Y-54663260D01*
X148660300Y-54825900D01*
X148660300Y-55373759D01*
X143765760Y-60268300D01*
X127357341Y-60268300D01*
X120428001Y-53338961D01*
X120428104Y-53221176D01*
X120336952Y-53000571D01*
X120168317Y-52831641D01*
X119947871Y-52740104D01*
X119709176Y-52739896D01*
X119488571Y-52831048D01*
X119319641Y-52999683D01*
X119228104Y-53220129D01*
X119227896Y-53458824D01*
X115945000Y-53458824D01*
X115945000Y-46675940D01*
X117693263Y-46675940D01*
X117693263Y-48375940D01*
X117714182Y-48487113D01*
X117779885Y-48589219D01*
X117880137Y-48657718D01*
X117999140Y-48681817D01*
X119699140Y-48681817D01*
X119810313Y-48660898D01*
X119912419Y-48595195D01*
X119980918Y-48494943D01*
X120005017Y-48375940D01*
X120005017Y-46675940D01*
X119984098Y-46564767D01*
X119918395Y-46462661D01*
X119818143Y-46394162D01*
X119699140Y-46370063D01*
X117999140Y-46370063D01*
X117887967Y-46390982D01*
X117785861Y-46456685D01*
X117717362Y-46556937D01*
X117693263Y-46675940D01*
X115945000Y-46675940D01*
X115945000Y-45215054D01*
X117722194Y-45215054D01*
X117890257Y-45620806D01*
X118206200Y-45939428D01*
X118620025Y-46112890D01*
X118799140Y-46059857D01*
X118799140Y-45035940D01*
X118899140Y-45035940D01*
X118899140Y-46059857D01*
X119078255Y-46112890D01*
X119492080Y-45939428D01*
X119808023Y-45620806D01*
X119976086Y-45215054D01*
X119922977Y-45035940D01*
X118899140Y-45035940D01*
X118799140Y-45035940D01*
X117775303Y-45035940D01*
X117722194Y-45215054D01*
X115945000Y-45215054D01*
X115945000Y-44756826D01*
X117722194Y-44756826D01*
X117775303Y-44935940D01*
X118799140Y-44935940D01*
X118799140Y-43912023D01*
X118899140Y-43912023D01*
X118899140Y-44935940D01*
X119922977Y-44935940D01*
X119976086Y-44756826D01*
X119808023Y-44351074D01*
X119492080Y-44032452D01*
X119078255Y-43858990D01*
X118899140Y-43912023D01*
X118799140Y-43912023D01*
X118620025Y-43858990D01*
X118206200Y-44032452D01*
X117890257Y-44351074D01*
X117722194Y-44756826D01*
X115945000Y-44756826D01*
X115945000Y-43216932D01*
X116116588Y-42354303D01*
X116584309Y-41654309D01*
X117284303Y-41186588D01*
X118146932Y-41015000D01*
X152363068Y-41015000D01*
X152366324Y-41015648D01*
M02*
