G04 #@! TF.FileFunction,Legend,Bot*
%FSLAX46Y46*%
G04 Gerber Fmt 4.6, Leading zero omitted, Abs format (unit mm)*
G04 Created by KiCad (PCBNEW 4.0.4-stable) date 10/14/18 22:48:43*
%MOMM*%
%LPD*%
G01*
G04 APERTURE LIST*
%ADD10C,0.100000*%
%ADD11C,0.300000*%
G04 APERTURE END LIST*
D10*
D11*
X145191429Y-47414571D02*
X145191429Y-45914571D01*
X144834286Y-45914571D01*
X144620001Y-45986000D01*
X144477143Y-46128857D01*
X144405715Y-46271714D01*
X144334286Y-46557429D01*
X144334286Y-46771714D01*
X144405715Y-47057429D01*
X144477143Y-47200286D01*
X144620001Y-47343143D01*
X144834286Y-47414571D01*
X145191429Y-47414571D01*
X142834286Y-47414571D02*
X143334286Y-46700286D01*
X143691429Y-47414571D02*
X143691429Y-45914571D01*
X143120001Y-45914571D01*
X142977143Y-45986000D01*
X142905715Y-46057429D01*
X142834286Y-46200286D01*
X142834286Y-46414571D01*
X142905715Y-46557429D01*
X142977143Y-46628857D01*
X143120001Y-46700286D01*
X143691429Y-46700286D01*
X140191429Y-47271714D02*
X140262858Y-47343143D01*
X140477144Y-47414571D01*
X140620001Y-47414571D01*
X140834286Y-47343143D01*
X140977144Y-47200286D01*
X141048572Y-47057429D01*
X141120001Y-46771714D01*
X141120001Y-46557429D01*
X141048572Y-46271714D01*
X140977144Y-46128857D01*
X140834286Y-45986000D01*
X140620001Y-45914571D01*
X140477144Y-45914571D01*
X140262858Y-45986000D01*
X140191429Y-46057429D01*
X139620001Y-46986000D02*
X138905715Y-46986000D01*
X139762858Y-47414571D02*
X139262858Y-45914571D01*
X138762858Y-47414571D01*
X138262858Y-47414571D02*
X138262858Y-45914571D01*
X137905715Y-45914571D01*
X137691430Y-45986000D01*
X137548572Y-46128857D01*
X137477144Y-46271714D01*
X137405715Y-46557429D01*
X137405715Y-46771714D01*
X137477144Y-47057429D01*
X137548572Y-47200286D01*
X137691430Y-47343143D01*
X137905715Y-47414571D01*
X138262858Y-47414571D01*
X136762858Y-47414571D02*
X136762858Y-45914571D01*
X135191429Y-47271714D02*
X135262858Y-47343143D01*
X135477144Y-47414571D01*
X135620001Y-47414571D01*
X135834286Y-47343143D01*
X135977144Y-47200286D01*
X136048572Y-47057429D01*
X136120001Y-46771714D01*
X136120001Y-46557429D01*
X136048572Y-46271714D01*
X135977144Y-46128857D01*
X135834286Y-45986000D01*
X135620001Y-45914571D01*
X135477144Y-45914571D01*
X135262858Y-45986000D01*
X135191429Y-46057429D01*
X133405715Y-47414571D02*
X133405715Y-45914571D01*
X132834287Y-45914571D01*
X132691429Y-45986000D01*
X132620001Y-46057429D01*
X132548572Y-46200286D01*
X132548572Y-46414571D01*
X132620001Y-46557429D01*
X132691429Y-46628857D01*
X132834287Y-46700286D01*
X133405715Y-46700286D01*
X131905715Y-47414571D02*
X131905715Y-45914571D01*
X131905715Y-46628857D02*
X131048572Y-46628857D01*
X131048572Y-47414571D02*
X131048572Y-45914571D01*
X130334286Y-47414571D02*
X130334286Y-45914571D01*
X128905714Y-47414571D02*
X129620000Y-47414571D01*
X129620000Y-45914571D01*
X128405714Y-47414571D02*
X128405714Y-45914571D01*
X127691428Y-47414571D02*
X127691428Y-45914571D01*
X127120000Y-45914571D01*
X126977142Y-45986000D01*
X126905714Y-46057429D01*
X126834285Y-46200286D01*
X126834285Y-46414571D01*
X126905714Y-46557429D01*
X126977142Y-46628857D01*
X127120000Y-46700286D01*
X127691428Y-46700286D01*
X126191428Y-47414571D02*
X126191428Y-45914571D01*
X125620000Y-45914571D01*
X125477142Y-45986000D01*
X125405714Y-46057429D01*
X125334285Y-46200286D01*
X125334285Y-46414571D01*
X125405714Y-46557429D01*
X125477142Y-46628857D01*
X125620000Y-46700286D01*
X126191428Y-46700286D01*
X124691428Y-46628857D02*
X124191428Y-46628857D01*
X123977142Y-47414571D02*
X124691428Y-47414571D01*
X124691428Y-45914571D01*
X123977142Y-45914571D01*
M02*
